<svg id="Capa_1" data-name="Capa 1" xmlns="http://www.w3.org/2000/svg" viewBox="0 0 30 30"><title>icono_whatsapp</title><path d="M30,14.61A14.75,14.75,0,0,1,8.15,27.41L0,30l2.66-7.84A14.46,14.46,0,0,1,.55,14.61a14.73,14.73,0,0,1,29.45,0" style="fill:#74a2d1"/><path d="M23.61,18.24a2,2,0,0,0-.77-0.46c-0.4-.2-2.36-1.16-2.73-1.29a0.63,0.63,0,0,0-.88.16l0,0A16.5,16.5,0,0,1,18,18.24a0.61,0.61,0,0,1-.86.1h0a10.92,10.92,0,0,1-3.21-2,11.94,11.94,0,0,1-2.22-2.74,0.57,0.57,0,0,1,.15-0.79l0,0c0.18-.18.4-0.46,0.6-0.69a2.65,2.65,0,0,0,.4-0.66,0.72,0.72,0,0,0,0-.69c-0.1-.2-0.9-2.15-1.23-2.94S11,7.15,10.71,7.15H9.94a1.47,1.47,0,0,0-1.06.5A4.43,4.43,0,0,0,7.48,11a7.67,7.67,0,0,0,1.6,4c0.2,0.26,2.76,4.39,6.82,6s4.06,1.06,4.79,1a4,4,0,0,0,2.69-1.88,3.3,3.3,0,0,0,.23-1.88" style="fill:#fff"/></svg>