<svg id="Capa_1" data-name="Capa 1" xmlns="http://www.w3.org/2000/svg" viewBox="0 0 30 30"><title>icono</title><path d="M15,23a8,8,0,1,1,8-8A8,8,0,0,1,15,23Zm0-12.65A4.63,4.63,0,1,0,19.63,15,4.64,4.64,0,0,0,15,10.37Z" style="fill:#74a2d1"/><path d="M15,22.31A7.31,7.31,0,1,1,22.31,15,7.32,7.32,0,0,1,15,22.31ZM15,9.66A5.34,5.34,0,1,0,20.34,15,5.35,5.35,0,0,0,15,9.66Z" style="fill:#74a2d1"/><circle cx="23.36" cy="6.92" r="1.62" style="fill:#74a2d1"/><circle cx="23.36" cy="6.92" r="0.91" style="fill:#74a2d1"/><path d="M8.71,30A8.72,8.72,0,0,1,0,21.29V8.71A8.72,8.72,0,0,1,8.71,0H21.29A8.72,8.72,0,0,1,30,8.71V21.29A8.72,8.72,0,0,1,21.29,30H8.71Zm0-26.62A5.33,5.33,0,0,0,3.38,8.71V21.29a5.33,5.33,0,0,0,5.33,5.33H21.29a5.33,5.33,0,0,0,5.33-5.33V8.71a5.33,5.33,0,0,0-5.33-5.33H8.71Z" style="fill:#74a2d1"/><path d="M21.29,29.29H8.71a8,8,0,0,1-8-8V8.71a8,8,0,0,1,8-8H21.29a8,8,0,0,1,8,8V21.29A8,8,0,0,1,21.29,29.29ZM8.71,2.68a6,6,0,0,0-6,6V21.29a6,6,0,0,0,6,6H21.29a6,6,0,0,0,6-6V8.71a6,6,0,0,0-6-6H8.71Z" style="fill:#74a2d1"/></svg>